<?xml version="1.0" standalone="no"?>
<!DOCTYPE svg PUBLIC "-//W3C//DTD SVG 20010904//EN"
 "http://www.w3.org/TR/2001/REC-SVG-20010904/DTD/svg10.dtd">
<svg version="1.0" xmlns="http://www.w3.org/2000/svg"
 width="1121.000000pt" height="1073.000000pt" viewBox="0 0 1121.000000 1073.000000"
 preserveAspectRatio="xMidYMid meet">
<metadata>
Created by potrace 1.16, written by Peter Selinger 2001-2019
</metadata>
<g transform="translate(0.000000,1073.000000) scale(0.100000,-0.100000)"
fill="#000000" stroke="none">
<path d="M1505 9446 c-40 -17 -84 -63 -101 -103 -12 -27 -14 -435 -14 -2455 0
-2415 0 -2422 20 -2464 12 -24 39 -54 62 -70 l41 -29 749 -3 748 -2 0 -627 c0
-610 1 -628 20 -669 12 -24 39 -54 62 -70 l41 -29 719 -3 718 -2 0 -667 c0
-650 1 -668 20 -709 12 -24 39 -54 62 -70 l41 -29 2486 0 2486 0 36 24 c20 14
47 41 60 60 l24 35 3 2460 c1 1354 0 2476 -3 2494 -8 42 -59 100 -110 123 -38
17 -87 19 -812 19 l-773 0 0 594 c0 396 -4 604 -11 623 -15 40 -57 82 -104
104 -38 18 -80 19 -742 19 l-703 0 0 654 c0 438 -4 664 -11 683 -15 40 -57 82
-104 104 -39 18 -125 19 -2460 18 -1984 0 -2425 -2 -2450 -13z m8155 -2854
c19 -9 45 -32 57 -51 l23 -34 -2 -2468 -3 -2467 -25 -27 c-55 -59 135 -55
-2530 -55 -2665 0 -2475 -4 -2530 55 l-25 27 -2 2466 c-3 2446 -3 2467 17
2500 11 18 34 41 52 52 33 20 59 20 2483 20 2306 0 2452 -1 2485 -18z"/>
<path d="M5445 5966 c-40 -17 -84 -63 -101 -103 -11 -25 -14 -107 -14 -365 0
-313 1 -334 20 -374 12 -24 39 -54 62 -70 l41 -29 629 -3 628 -2 0 -1427 c0
-1414 0 -1427 20 -1469 12 -24 39 -54 62 -70 l41 -29 376 0 376 0 36 24 c20
14 47 41 60 60 l24 35 3 1437 2 1438 658 3 657 3 36 24 c20 14 47 41 60 60 24
34 24 35 27 365 2 182 0 346 -3 364 -8 42 -59 100 -110 123 -38 18 -119 19
-1800 18 -1437 0 -1766 -2 -1790 -13z"/>
</g>
</svg>
